HIERARCHY
ROOT Hips
{
	OFFSET 0.000000 0.000000 0.000000
	CHANNELS 6 Xposition Yposition Zposition Zrotation Yrotation Xrotation 
	JOINT LHipJoint
	{
		OFFSET 0.000000 0.000000 0.000000
		CHANNELS 3 Zrotation Yrotation Xrotation
		JOINT LeftUpLeg
		{
			OFFSET 1.363060 -1.794630 0.839290
			CHANNELS 3 Zrotation Yrotation Xrotation
			JOINT LeftLeg
			{
				OFFSET 2.448110 -6.726130 0.000000
				CHANNELS 3 Zrotation Yrotation Xrotation
				JOINT LeftFoot
				{
					OFFSET 2.562200 -7.039590 0.000000
					CHANNELS 3 Zrotation Yrotation Xrotation
					JOINT LeftToeBase
					{
						OFFSET 0.157640 -0.433110 2.322550
						CHANNELS 3 Zrotation Yrotation Xrotation
						End Site
						{
							OFFSET 0.000000 0.000000 0.000000
						}
					}
				}
			}
		}
	}
	JOINT RHipJoint
	{
		OFFSET 0.000000 0.000000 0.000000
		CHANNELS 3 Zrotation Yrotation Xrotation
		JOINT RightUpLeg
		{
			OFFSET -1.305520 -1.794630 0.839290
			CHANNELS 3 Zrotation Yrotation Xrotation
			JOINT RightLeg
			{
				OFFSET -2.542530 -6.985550 0.000000
				CHANNELS 3 Zrotation Yrotation Xrotation
				JOINT RightFoot
				{
					OFFSET -2.568260 -7.056230 0.000000
					CHANNELS 3 Zrotation Yrotation Xrotation
					JOINT RightToeBase
					{
						OFFSET -0.164730 -0.452590 2.363150
						CHANNELS 3 Zrotation Yrotation Xrotation
						End Site
						{
							OFFSET 0.000000 0.000000 0.000000
						}
					}
				}
			}
		}
	}
}
MOTION
Frames: 16
Frame Time: 0.008333
23.358718 16.234968 4.342434 -137.816674 -85.031567 179.950239 -12.795942 2.325093 -2.398672 -2.694109 9.304785 -12.309734 -0.844919 0.508787 14.401327 1.131948 4.199319 22.938960 1.583100 0.000000 -79.726000 7.170224 -0.423814 4.405660 9.478611 14.360694 -71.384480 3.165975 -2.337069 33.501609 -0.386318 1.341542 -8.797083 -0.200401 0.000000 -31.626300
23.143477 16.181542 4.307028 -136.170698 -85.571203 178.111895 -12.800340 2.294565 -2.320342 -2.348203 8.720502 -12.235235 -0.687408 0.566753 15.950935 1.189907 4.089974 23.557807 1.522501 0.000000 -77.128900 7.181116 -0.375639 4.098446 9.425089 14.110909 -71.477398 2.922078 -2.653098 36.464484 -0.509928 1.262663 -10.375293 -0.124199 0.000000 -28.528400
22.929999 16.133682 4.273011 -133.938447 -86.119254 175.618365 -12.824155 2.232901 -2.267130 -1.991161 8.223110 -12.213936 -0.528615 0.620081 17.664478 1.247593 4.021238 24.036220 1.474800 -0.000000 -73.740000 7.174682 -0.356339 3.762140 9.504590 13.760237 -71.381342 2.719706 -2.949251 39.330314 -0.642540 1.180509 -12.126742 -0.037999 0.000000 -25.736600
22.718022 16.092302 4.240392 -130.974120 -86.654006 172.349776 -12.879596 2.133902 -2.239754 -1.624685 7.826960 -12.275200 -0.369174 0.667000 19.516947 1.307202 4.054838 24.345419 1.471200 -0.000000 -69.903499 7.139858 -0.382652 3.420581 9.705814 13.354859 -71.086090 2.563973 -3.211473 41.942608 -0.781356 1.079956 -13.936281 0.054300 0.000000 -23.661200
22.507038 16.058060 4.208961 -127.302690 -87.150290 168.344527 -12.977032 1.998770 -2.238142 -1.254175 7.545607 -12.429022 -0.212950 0.708906 21.485328 1.369675 4.226459 24.454938 1.529500 -0.000000 -65.670200 7.068382 -0.458566 3.081879 10.024740 12.917020 -70.583871 2.457718 -3.433896 44.222242 -0.920449 0.979419 -15.744515 0.152200 0.000000 -22.297900
22.296625 16.031288 4.178326 -123.157492 -87.572930 163.852380 -13.115691 1.835574 -2.259765 -0.888477 7.380152 -12.683367 -0.066399 0.749630 23.538068 1.437475 4.574413 24.348542 1.667300 0.000000 -61.275300 6.960630 -0.572848 2.752385 10.445229 12.475717 -69.877635 2.398045 -3.610496 46.117980 -1.055070 0.892835 -17.493078 0.253100 0.000001 -21.613900
22.086251 16.011975 4.147841 -118.966187 -87.889070 159.317255 -13.277594 1.657564 -2.302430 -0.537574 7.322742 -13.043387 0.061876 0.794971 25.645927 1.512285 5.121657 24.013767 1.892400 0.000000 -56.881300 6.830956 -0.703353 2.436828 10.944519 12.056672 -68.979545 2.379221 -3.737651 47.606309 -1.180738 0.831941 -19.130763 0.353000 0.000000 -21.534400
21.875654 15.999881 4.116865 -115.176063 -88.084318 155.195943 -13.435181 1.476784 -2.363745 -0.208595 7.355431 -13.505047 0.166613 0.849568 27.779198 1.595454 5.877417 23.458388 2.203400 -0.000001 -52.775100 6.701280 -0.830848 2.139625 11.498041 11.674488 -67.904626 2.395188 -3.816269 48.688406 -1.293716 0.805126 -20.622526 0.446900 -0.000000 -21.892000
21.664270 15.994587 4.084588 -112.166179 -88.166097 151.877793 -13.560166 1.301836 -2.442042 0.086270 7.455168 -14.068440 0.245380 0.916197 29.919353 1.686119 6.825886 22.681414 2.583800 -0.000000 -49.022000 6.594794 -0.941839 1.866259 12.072143 11.333013 -66.681339 2.439020 -3.850871 49.383885 -1.391052 0.814452 -21.941766 0.529600 -0.000000 -22.523600
21.452515 15.995726 4.050467 -110.096550 -88.158010 149.525613 -13.636576 1.136122 -2.533535 0.335314 7.594253 -14.729277 0.300918 0.994726 32.046855 1.784240 7.939814 21.703947 3.010000 0.000000 -45.817001 6.524650 -1.032218 1.621136 12.634208 11.029699 -65.337501 2.503895 -3.847314 49.726147 -1.471626 0.855690 -23.077496 0.597900 0.000000 -23.225300
21.239822 16.002782 4.013971 -109.018309 -88.087633 148.198669 -13.656294 0.982703 -2.634315 0.522135 7.749235 -15.491802 0.335526 1.084573 34.151784 1.887921 9.171051 20.528941 3.445900 0.000000 -43.070500 6.498903 -1.098358 1.407773 13.149418 10.760998 -63.908883 2.582082 -3.811079 49.759448 -1.535658 0.919578 -24.027544 0.650600 -0.000000 -23.837400
21.026424 16.015389 3.974835 -108.889453 -87.979719 147.860263 -13.619073 0.844291 -2.738306 0.632483 7.896567 -16.358392 0.352706 1.184148 36.219242 1.996401 10.470520 19.181848 3.857500 -0.000000 -40.805600 6.519406 -1.137855 1.228015 13.589876 10.524653 -62.427604 2.666068 -3.746487 49.531603 -1.585313 0.991757 -24.800263 0.689500 -0.000000 -24.236800
20.812242 16.033248 3.933024 -109.639644 -87.851511 148.445729 -13.528503 0.723815 -2.840065 0.655808 8.019384 -17.334346 0.354685 1.292372 38.237297 2.107708 11.782923 17.680793 4.209600 0.000000 -38.899200 6.584953 -1.147915 1.081943 13.936295 10.320249 -60.923521 2.749038 -3.656827 49.089716 -1.623895 1.055998 -25.410308 0.718300 0.000000 -24.365900
20.597617 16.056235 3.888752 -111.212588 -87.712718 149.900427 -13.390013 0.624582 -2.933522 0.585726 8.102660 -18.420585 0.343679 1.407904 40.187613 2.220546 13.061670 16.064146 4.478000 0.000000 -37.347100 6.692568 -1.125819 0.967858 14.178793 10.146559 -59.419055 2.825551 -3.544485 48.475734 -1.655236 1.097380 -25.877571 0.742100 0.000000 -24.219200
20.382633 16.084211 3.842373 -113.573752 -87.564422 152.193879 -13.209990 0.550121 -3.014037 0.420699 8.138352 -19.618424 0.320351 1.530301 42.053890 2.332478 14.263637 14.358674 4.644000 0.000000 -36.005900 6.838251 -1.069185 0.882646 14.316792 10.002147 -57.931584 2.891662 -3.410888 47.724055 -1.682635 1.105342 -26.221052 0.765000 -0.000001 -23.862300
20.167176 16.117158 3.794418 -116.704819 -87.400408 155.304240 -12.996678 0.503913 -3.077546 0.164070 8.122340 -20.920536 0.285037 1.659550 43.814524 2.441366 15.356614 12.599435 4.700700 -0.000000 -34.800300 7.015763 -0.976771 0.820918 14.358326 9.881750 -56.465552 2.945323 -3.256430 46.859136 -1.708430 1.076053 -26.459485 0.790300 -0.000001 -23.373700
